name Visual3d_SIMM_grf.mot
datacolumns 19
datarows 46
range 0.840000 1.290000
endheader
time	ground_force_vx	ground_force_vy	ground_force_vz	ground_force_px	ground_force_py	ground_force_pz	l_ground_force_vx	l_ground_force_vy	l_ground_force_vz	l_ground_force_px	l_ground_force_py	l_ground_force_pz	ground_torque_x	ground_torque_y	ground_torque_z	l_ground_torque_x	l_ground_torque_y	l_ground_torque_z
0.840000	0.000000	0.000000	0.000000	0.000000	0.000000	0.000000	-0.618036	138.830246	-21.802402	0.440298	-0.002965	-0.355041	0.000000	0.000000	0.000000	-0.006741	0.731462	0.015646
0.850000	0.000000	0.000000	0.000000	0.000000	0.000000	0.000000	-2.328311	156.478409	-26.206266	0.441695	-0.004013	-0.354580	0.000000	0.000000	0.000000	-0.007328	0.795129	0.017008
0.860000	0.000000	0.000000	0.000000	0.000000	0.000000	0.000000	-4.170731	172.121902	-30.009417	0.443328	-0.004721	-0.353102	0.000000	0.000000	0.000000	-0.007782	0.844430	0.018063
0.870000	0.000000	0.000000	0.000000	0.000000	0.000000	0.000000	-5.908745	186.693192	-33.156479	0.445133	-0.005079	-0.350967	0.000000	0.000000	0.000000	-0.008131	0.882245	0.018872
0.880000	0.000000	0.000000	0.000000	0.000000	0.000000	0.000000	-7.339108	200.499817	-35.416042	0.446904	-0.005138	-0.348619	0.000000	0.000000	0.000000	-0.008419	0.913537	0.019541
0.890000	0.000000	0.000000	0.000000	0.000000	0.000000	0.000000	-8.324798	213.095566	-36.526913	0.448413	-0.004978	-0.346430	0.000000	0.000000	0.000000	-0.008699	0.943906	0.020190
0.900000	0.000000	0.000000	0.000000	0.000000	0.000000	0.000000	-8.854792	223.642258	-36.391834	0.449533	-0.004679	-0.344614	0.000000	0.000000	0.000000	-0.008967	0.973031	0.020813
0.910000	0.000000	0.000000	0.000000	0.000000	0.000000	0.000000	-9.056987	231.371124	-35.077736	0.450283	-0.004307	-0.343256	0.000000	0.000000	0.000000	-0.009151	0.992941	0.021239
0.920000	0.000000	0.000000	0.000000	0.000000	0.000000	0.000000	-9.114249	235.819977	-32.763306	0.450760	-0.003904	-0.342345	0.000000	0.000000	0.000000	-0.009174	0.995422	0.021292
0.930000	0.000000	0.000000	0.000000	0.000000	0.000000	0.000000	-9.183801	236.916580	-29.697845	0.451080	-0.003495	-0.341811	0.000000	0.000000	0.000000	-0.009012	0.977858	0.020917
0.940000	0.000000	0.000000	0.000000	0.000000	0.000000	0.000000	-9.382206	234.977890	-26.155245	0.451349	-0.003091	-0.341560	0.000000	0.000000	0.000000	-0.008677	0.941535	0.020140
0.950000	0.000000	0.000000	0.000000	0.000000	0.000000	0.000000	-9.751216	230.589233	-22.393976	0.451642	-0.002695	-0.341489	0.000000	0.000000	0.000000	-0.008209	0.890723	0.019053
0.960000	0.000000	0.000000	0.000000	0.000000	0.000000	0.000000	-10.226040	224.433212	-18.631075	0.451987	-0.002312	-0.341493	0.000000	0.000000	0.000000	-0.007663	0.831485	0.017786
0.970000	0.000000	0.000000	0.000000	0.000000	0.000000	0.000000	-10.671543	217.169342	-15.020878	0.452369	-0.001946	-0.341474	0.000000	0.000000	0.000000	-0.007086	0.768846	0.016446
0.980000	0.000000	0.000000	0.000000	0.000000	0.000000	0.000000	-10.959175	209.386307	-11.655451	0.452763	-0.001607	-0.341352	0.000000	0.000000	0.000000	-0.006496	0.704896	0.015078
0.990000	0.000000	0.000000	0.000000	0.000000	0.000000	0.000000	-11.013615	201.588806	-8.584925	0.453154	-0.001301	-0.341054	0.000000	0.000000	0.000000	-0.005900	0.640224	0.013695
1.000000	0.000000	0.000000	0.000000	0.000000	0.000000	0.000000	-10.821148	194.210434	-5.836298	0.453531	-0.001033	-0.340494	0.000000	0.000000	0.000000	-0.005300	0.575142	0.012302
1.010000	0.000000	0.000000	0.000000	0.000000	0.000000	0.000000	-10.425107	187.612259	-3.417476	0.453898	-0.000805	-0.339588	0.000000	0.000000	0.000000	-0.004685	0.508344	0.010874
1.020000	0.000000	0.000000	0.000000	0.000000	0.000000	0.000000	-9.902561	182.067001	-1.318387	0.454270	-0.000615	-0.338255	0.000000	0.000000	0.000000	-0.004033	0.437584	0.009360
1.030000	0.000000	0.000000	0.000000	0.000000	0.000000	0.000000	-9.339292	177.720062	0.487696	0.454674	-0.000461	-0.336446	0.000000	0.000000	0.000000	-0.003329	0.361216	0.007727
1.040000	0.000000	0.000000	0.000000	0.000000	0.000000	0.000000	-8.817044	174.599213	2.037192	0.455149	-0.000338	-0.334148	0.000000	0.000000	0.000000	-0.002573	0.279207	0.005972
1.050000	0.000000	0.000000	0.000000	0.000000	0.000000	0.000000	-8.397533	172.644714	3.370852	0.455718	-0.000244	-0.331370	0.000000	0.000000	0.000000	-0.001787	0.193894	0.004147
1.060000	0.000000	0.000000	0.000000	0.000000	0.000000	0.000000	-8.111991	171.729385	4.527495	0.456386	-0.000175	-0.328149	0.000000	0.000000	0.000000	-0.000998	0.108243	0.002315
1.070000	0.000000	0.000000	0.000000	0.000000	0.000000	0.000000	-7.966082	171.677399	5.549252	0.457151	-0.000126	-0.324543	0.000000	0.000000	0.000000	-0.000228	0.024762	0.000530
1.080000	0.000000	0.000000	0.000000	0.000000	0.000000	0.000000	-7.951505	172.297256	6.483721	0.458004	-0.000090	-0.320619	0.000000	0.000000	0.000000	0.000514	-0.055727	-0.001192
1.090000	0.000000	0.000000	0.000000	0.000000	0.000000	0.000000	-8.057752	173.409836	7.377208	0.458940	-0.000065	-0.316439	0.000000	0.000000	0.000000	0.001228	-0.133266	-0.002851
1.100000	0.000000	0.000000	0.000000	0.000000	0.000000	0.000000	-8.273849	174.867325	8.258902	0.459958	-0.000053	-0.312032	0.000000	0.000000	0.000000	0.001914	-0.207679	-0.004442
1.110000	0.000000	0.000000	0.000000	0.000000	0.000000	0.000000	-8.592591	176.554825	9.130702	0.461070	-0.000054	-0.307410	0.000000	0.000000	0.000000	0.002566	-0.278454	-0.005956
1.120000	0.000000	0.000000	0.000000	0.000000	0.000000	0.000000	-9.008170	178.419785	9.982081	0.462295	-0.000063	-0.302576	0.000000	0.000000	0.000000	0.003171	-0.344052	-0.007359
1.130000	0.000000	0.000000	0.000000	0.000000	0.000000	0.000000	-9.508505	180.497192	10.806230	0.463636	-0.000069	-0.297550	0.000000	0.000000	0.000000	0.003714	-0.402967	-0.008620
1.140000	0.000000	0.000000	0.000000	0.000000	0.000000	0.000000	-10.075097	182.901779	11.613920	0.465072	-0.000060	-0.292384	0.000000	0.000000	0.000000	0.004191	-0.454788	-0.009728
1.150000	0.000000	0.000000	0.000000	0.000000	0.000000	0.000000	-10.688437	185.804977	12.442981	0.466561	-0.000026	-0.287175	0.000000	0.000000	0.000000	0.004612	-0.500424	-0.010704
1.160000	0.000000	0.000000	0.000000	0.000000	0.000000	0.000000	-11.333925	189.408295	13.363857	0.468033	0.000040	-0.282058	0.000000	0.000000	0.000000	0.004988	-0.541233	-0.011577
1.170000	0.000000	0.000000	0.000000	0.000000	0.000000	0.000000	-12.003248	193.895615	14.472905	0.469427	0.000136	-0.277191	0.000000	0.000000	0.000000	0.005329	-0.578183	-0.012368
1.180000	0.000000	0.000000	0.000000	0.000000	0.000000	0.000000	-12.692128	199.384232	15.877901	0.470688	0.000257	-0.272725	0.000000	0.000000	0.000000	0.005628	-0.610659	-0.013062
1.190000	0.000000	0.000000	0.000000	0.000000	0.000000	0.000000	-13.401035	205.864090	17.657686	0.471762	0.000390	-0.268763	0.000000	0.000000	0.000000	0.005881	-0.638100	-0.013649
1.200000	0.000000	0.000000	0.000000	0.000000	0.000000	0.000000	-14.121104	213.134628	19.837646	0.472607	0.000521	-0.265345	0.000000	0.000000	0.000000	0.006081	-0.659828	-0.014114
1.210000	0.000000	0.000000	0.000000	0.000000	0.000000	0.000000	-14.813307	220.760147	22.378284	0.473195	0.000636	-0.262440	0.000000	0.000000	0.000000	0.006235	-0.676573	-0.014472
1.220000	0.000000	0.000000	0.000000	0.000000	0.000000	0.000000	-15.394023	228.075043	25.186037	0.473509	0.000726	-0.259972	0.000000	0.000000	0.000000	0.006369	-0.691115	-0.014783
1.230000	0.000000	0.000000	0.000000	0.000000	0.000000	0.000000	-15.751181	234.223373	28.129385	0.473531	0.000792	-0.257839	0.000000	0.000000	0.000000	0.006530	-0.708577	-0.015157
1.240000	0.000000	0.000000	0.000000	0.000000	0.000000	0.000000	-15.772745	238.218140	31.059929	0.473258	0.000840	-0.255948	0.000000	0.000000	0.000000	0.006750	-0.732417	-0.015667
1.250000	-2.169299	22.416046	-3.350785	0.387359	-0.002870	0.067512	-15.392128	239.074051	33.816696	0.472692	0.000878	-0.254222	-0.000195	-0.058708	0.001104	0.007011	-0.760755	-0.016273
1.260000	-1.919508	35.685009	-4.825545	0.389208	-0.003439	0.068828	-14.597686	235.955948	36.226196	0.471820	0.000906	-0.252629	-0.000136	-0.040832	0.000768	0.007250	-0.786699	-0.016828
1.270000	-1.464596	51.200680	-6.243913	0.390272	-0.003917	0.072272	-13.416897	228.288101	38.082912	0.470588	0.000902	-0.251182	-0.000057	-0.017021	0.000320	0.007387	-0.801544	-0.017145
1.280000	-0.758914	67.286819	-7.681813	0.390925	-0.004083	0.078065	-11.904462	215.827591	39.167030	0.468903	0.000815	-0.249967	0.000034	0.010103	-0.000190	0.007346	-0.797139	-0.017051
1.290000	0.236502	82.812134	-9.839146	0.391285	-0.003761	0.086821	-10.140560	198.740463	39.268974	0.466643	0.000564	-0.249149	0.000124	0.037320	-0.000702	0.007088	-0.769141	-0.016452
